<svg xmlns="http://www.w3.org/2000/svg" xmlns:xlink="http://www.w3.org/1999/xlink" width="910px" height="620px" viewBox="0 0  910 620" preserveAspectRatio="xMidYMid meet" ><rect id="svgEditorBackground" x="0" y="0" width="910" height="620" style="fill: none; stroke: none;"/><polygon stroke="black" id="e255_polygon" style="stroke-width: 1px;" points="67 245 68 216 94 202 101.25 173.5 106.5 157 107 154 263 155 263 244 232 244 225 227 211 223 197 228 196 244 145 244 141 226 123 218 109 228 106 245"  fill="white"/><polygon stroke="black" id="e354_polygon" style="stroke-width: 1px;" points="110 161 99 200 111 200" fill="aliceblue" /><polygon stroke="black" id="e393_polygon" style="stroke-width: 1px; fill: none;" points="153 167 153 204 241 205 242 167" /><circle id="e815_circle" cx="126" cy="239" stroke="black" style="stroke-width: 3px;" r="13.1287" fill="white" /><circle id="e843_circle" cx="213" cy="242" stroke="black" style="stroke-width: 3px;" r="13.0523" fill="white" /><polygon stroke="black" id="e929_polygon" style="stroke-width: 1px;" points="153 166 144 180 251 183 242 168" fill="grey" /><polygon stroke="black" id="e1056_polygon" style="stroke-width: 1px;" points="115 161 114 215 142 216 143 162" fill="white" /><polygon stroke="black" id="e1164_polygon" style="stroke-width: 1px;" points="118 166 120 197 138 198 135 167" fill="aliceblue" /><polygon stroke="black" id="e1331_polygon" style="stroke-width: 1px;" points="161 146 161 153 172 153 172 147" fill="black" /><polygon stroke="black" id="e1475_polygon" style="stroke-width: 1px;" points="201 147 201 154 212 154 212 148" fill="black" /><polygon stroke="black" id="e1506_polygon" style="stroke-width: 1px;" points="147 134 138 123 154 122 150 115 161 113 165 104 175 110 185 104 190 107 208 107 207 112 225 113 220 121 233 126 228 132 239 135 234 141" fill="green" /><polygon stroke="black" id="e1563_polygon" style="stroke-width: 1px;" points="103.745 103.591 206.744 105.591 213.744 96.5907 203.744 74.5907 177.744 52.5908 146.745 50.5908 127.745 60.5907 114.745 70.5907 102.745 83.5907" fill="khaki" transform="matrix(0.781401 0 0 0.781401 65.9795 64.4916)"/><circle id="e1635_circle" cx="126" cy="239" stroke="black" style="stroke-width: 1px;" r="5.75736" fill="grey"/><circle id="e1650_circle" cx="213" cy="242" stroke="black" style="stroke-width: 1px;" r="5.75736" fill="grey"/><polyline stroke="black" id="e1767_polyline" style="fill: none; stroke-width: 1px;" points="59 213" /><polygon stroke="black" id="e1894_polygon" style="stroke-width: 1px;" points="202 368 184 352 162 348 130 351 117 365 101 391 38 421 109 425 133 442 159 447 176 459 177 460 207 474 208 475 229 487 231 488 253 502 289 507 288 545 284 572 275 587 255 593 280 589 295 597 288 589 300 510 314 580 302 594 320 586 337 597 317 564 307 504 322 500 346 499 364 489 375 473 379 471 399 455 418 435 476 396 503 370 481 375 455 390 430 404 380 420 339 426 318 423 282 415 234 401 215 393" fill="black" /><circle id="e2477_circle" cx="163" cy="376" stroke="black" style="stroke-width: 1px;" r="10" fill="khaki"/><polygon stroke="black" id="e2507_polygon" style="stroke-width: 1px;" points="201 434 246 388 295 362 342 325 397 311 452 315 403 341 450 332 409 355 465 353 412 384 356 421 335 453 321 475" fill="black" /><polygon stroke="black" id="e2728_polygon" style="stroke-width: 1px;" points="575 66 557 50 535 46 503 49 490 63 474 89 411 119 482 123 506 140 532 145 549 157 550 158 580 172 581 173 602 185 604 186 626 200 662 205 661 243 657 270 648 285 628 291 653 287 668 295 661 287 673 208 687 278 675 292 693 284 710 295 690 262 680 202 695 198 719 197 737 187 748 171 752 169 772 153 791 133 849 94 876 68 854 73 828 88 803 102 753 118 712 124 691 121 655 113 607 99 588 91" fill="black" /><circle id="e2806_circle" cx="539" cy="77" stroke="black" style="stroke-width: 1px;" r="10" fill="khaki"/><polygon stroke="black" id="e2821_polygon" style="stroke-width: 1px;" points="579 137 527 200 504 252 504 303 547 258 549 318 568 266 583 331 595 272 613 335 622 274 631 226 643 163 654 136" fill="black" /><polygon stroke="black" id="e3278_polygon" style="stroke-width: 1px;" points="676 454 610 417 663 469 599 500 684 499 700 556 719 510 773 570 743 501 777 422 741 430 724 462 689 418" fill="red" /><polygon stroke="black" id="e3416_polygon" style="stroke-width: 1px;" points="323 216 314 205 330 204 326 197 337 195 341 186 351 192 361 186 366 189 384 189 383 194 401 195 396 203 409 208 404 214 415 217 410 223" fill="green" /><polygon stroke="black" id="e3542_polygon" style="stroke-width: 1px;" points="328.744 205.733 431.743 207.733 438.743 198.733 428.743 176.733 402.743 154.733 371.744 152.733 352.744 162.733 339.744 172.733 327.744 185.733" fill="khaki" transform="matrix(0.781401 0 0 0.781401 65.9795 64.4916)"/></svg>