<svg xmlns="http://www.w3.org/2000/svg" xmlns:xlink="http://www.w3.org/1999/xlink" width="910px" height="620px" viewBox="0 0  910 620" preserveAspectRatio="xMidYMid meet" ><rect id="svgEditorBackground" x="0" y="0" width="910" height="620" style="fill: none; stroke: none;"/><polygon stroke="black" id="e255_polygon" style="stroke-width: 1px;" points="161 365 162 336 188 322 201 274 357 275 357 364 326 364 319 347 305 343 291 348 290 364 239 364 235 346 217 338 203 348 200 365"  fill="white"/><polygon stroke="black" id="e354_polygon" style="stroke-width: 1px;" points="204 281 193 320 205 320" fill="aliceblue" /><polygon stroke="black" id="e393_polygon" style="stroke-width: 1px; fill: none;" points="247 287 247 324 335 325 336 287" /><circle id="e815_circle" cx="220" cy="359" stroke="black" style="stroke-width: 3px;" r="13.1287" fill="white" /><circle id="e843_circle" cx="307" cy="362" stroke="black" style="stroke-width: 3px;" r="13.0523" fill="white" /><polygon stroke="black" id="e929_polygon" style="stroke-width: 1px;" points="247 286 238 300 345 303 336 288" fill="grey"/><polygon stroke="black" id="e1056_polygon" style="stroke-width: 1px;" points="209 281 208 335 236 336 237 282" fill="white" /><polygon stroke="black" id="e1164_polygon" style="stroke-width: 1px;" points="212 286 214 317 232 318 229 287" fill="aliceblue" /><polygon stroke="black" id="e1331_polygon" style="stroke-width: 1px;" points="255 266 255 273 266 273 266 267" fill="black"/><polygon stroke="black" id="e1475_polygon" style="stroke-width: 1px;" points="295 267 295 274 306 274 306 268" fill="black" /><polygon stroke="black" id="e1506_polygon" style="stroke-width: 1px;" points="241 254 232 243 248 242 244 235 255 233 259 224 269 230 279 224 284 227 302 227 301 232 319 233 314 241 327 246 322 252 333 255 328 261" fill="green" /><polygon stroke="black" id="e1563_polygon" style="stroke-width: 1px;" points="224.041 257.161 327.041 259.161 334.041 250.161 324.041 228.161 298.041 206.161 267.041 204.161 248.041 214.161 235.041 224.161 223.041 237.161" fill="khaki" transform="matrix(0.781401 0 0 0.781401 65.9795 64.4916)"/><circle id="e1635_circle" cx="220" cy="359" stroke="black" style="stroke-width: 1px;" r="5.75736" fill="grey"/><circle id="e1650_circle" cx="307" cy="362" stroke="black" style="stroke-width: 1px;" r="5.75736" fill="grey"/></svg>